# xmcd
#
# Track frame offsets: 
#        150
#        13235
#        25887
#        37312
#        48760
#        59642
#        73870
#        86987
#        99295
#        114247
#        126927
#        139422
#        152925
#        166172
#        178765
#        190845
#        203292
#        216755
#        231860
#        244402
#        261092
#        276070
#        296387
#        309130
#
# Disc length: 4400 seconds
#
# Revision: 1
# Processed by: cddbd v1.5.2PL0 Copyright (c) Steve Scherf et al.
# Submitted via: ExactAudioCopy v1.3
#
DISCID=60112e18
DTITLE=Conway Twitty - The High Priest Of Country Music
DYEAR=1997
DGENRE=Country
TTITLE0=The Image Of Me
TTITLE1=Next In Line
TTITLE2=Darlin' You Know I Wouldn't Lie
TTITLE3=I Love You More Today
TTITLE4=Hello Darlin'
TTITLE5=Fifteen Years Ago
TTITLE6=How Much More Can She Stand
TTITLE7=I Wonder What She'll Think About Me Laving
TTITLE8=(Lost Her Love) On Our Last Date
TTITLE9=I Can't Stop Loving You
TTITLE10=She Needs Somebody To Hold Her (When She Cries)
TTITLE11=You've Never Been This Far Before
TTITLE12=There's A Honky Tonk Angel (Who'll Take Me Back In)
TTITLE13=I See The Want To In Your Eyes
TTITLE14=Linda On My Mind
TTITLE15=This Time I've Hurt Her More Than She Loves me
TTITLE16=The Games That Daddies Play
TTITLE17=Play Guitar Play
TTITLE18=I've Always Loved You In My Mind
TTITLE19=Don't Take It Away
TTITLE20=I'd Love To Lay You Down
TTITLE21=Rest Your Love On Me
TTITLE22=Tight Fittin' Jeans
TTITLE23=Red Neckin' Love Makin' Night
EXTD=
EXTT0=
EXTT1=
EXTT2=
EXTT3=
EXTT4=
EXTT5=
EXTT6=
EXTT7=
EXTT8=
EXTT9=
EXTT10=
EXTT11=
EXTT12=
EXTT13=
EXTT14=
EXTT15=
EXTT16=
EXTT17=
EXTT18=
EXTT19=
EXTT20=
EXTT21=
EXTT22=
EXTT23=
PLAYORDER=
